<mxfile host="app.diagrams.net" modified="2021-11-17T15:12:41.094Z" agent="5.0 (Macintosh)" etag="_Vg97WIH19i4l1lykOYC" version="15.5.2" type="github">
  <diagram id="zYWGo0iMATtiFffycCuh" name="Page-1">
    <mxGraphModel dx="3525" dy="587" grid="1" gridSize="10" guides="1" tooltips="1" connect="1" arrows="1" fold="1" page="1" pageScale="1" pageWidth="2339" pageHeight="3300" math="0" shadow="0">
      <root>
        <mxCell id="0" />
        <mxCell id="1" parent="0" />
        <mxCell id="1L5oEn02ENVLadmju7SX-13" style="edgeStyle=orthogonalEdgeStyle;rounded=0;orthogonalLoop=1;jettySize=auto;html=1;" edge="1" parent="1" source="8jwhhJ4_cBbjTl03nuOA-27" target="1L5oEn02ENVLadmju7SX-4">
          <mxGeometry relative="1" as="geometry" />
        </mxCell>
        <mxCell id="1L5oEn02ENVLadmju7SX-47" value="If none" style="edgeLabel;html=1;align=center;verticalAlign=middle;resizable=0;points=[];" vertex="1" connectable="0" parent="1L5oEn02ENVLadmju7SX-13">
          <mxGeometry x="-0.2747" y="2" relative="1" as="geometry">
            <mxPoint y="1" as="offset" />
          </mxGeometry>
        </mxCell>
        <mxCell id="1L5oEn02ENVLadmju7SX-14" value="" style="edgeStyle=orthogonalEdgeStyle;rounded=0;orthogonalLoop=1;jettySize=auto;html=1;" edge="1" parent="1" source="8jwhhJ4_cBbjTl03nuOA-27" target="8jwhhJ4_cBbjTl03nuOA-41">
          <mxGeometry relative="1" as="geometry" />
        </mxCell>
        <mxCell id="8jwhhJ4_cBbjTl03nuOA-27" value="Generate neighbours" style="sketch=0;points=[[0,0,0],[0.25,0,0],[0.5,0,0],[0.75,0,0],[1,0,0],[0,1,0],[0.25,1,0],[0.5,1,0],[0.75,1,0],[1,1,0],[0,0.25,0],[0,0.5,0],[0,0.75,0],[1,0.25,0],[1,0.5,0],[1,0.75,0]];outlineConnect=0;fontColor=#232F3E;gradientColor=#4AB29A;gradientDirection=north;fillColor=none;strokeColor=#56C0A7;dashed=0;verticalLabelPosition=bottom;verticalAlign=top;align=center;html=1;fontSize=12;fontStyle=0;aspect=fixed;shape=mxgraph.aws4.resourceIcon;resIcon=mxgraph.aws4.personalize;shadow=0;" parent="1" vertex="1">
          <mxGeometry x="50" y="230" width="79" height="79" as="geometry" />
        </mxCell>
        <mxCell id="8jwhhJ4_cBbjTl03nuOA-2" value="Initial Instance" style="swimlane;childLayout=stackLayout;horizontal=1;startSize=30;horizontalStack=0;rounded=1;fontSize=14;fontStyle=0;strokeWidth=2;resizeParent=0;resizeLast=1;shadow=0;dashed=0;align=center;fillColor=none;strokeColor=#56C0A7;" parent="1" vertex="1">
          <mxGeometry x="-110" y="108.99999999999999" width="130" height="90" as="geometry" />
        </mxCell>
        <mxCell id="8jwhhJ4_cBbjTl03nuOA-3" value="+Attribute1&#xa;+Attribute2&#xa;+Attribute3" style="align=left;strokeColor=none;fillColor=none;spacingLeft=4;fontSize=12;verticalAlign=top;resizable=0;rotatable=0;part=1;" parent="8jwhhJ4_cBbjTl03nuOA-2" vertex="1">
          <mxGeometry y="30" width="130" height="60" as="geometry" />
        </mxCell>
        <mxCell id="8jwhhJ4_cBbjTl03nuOA-63" value="results" style="edgeStyle=orthogonalEdgeStyle;rounded=0;orthogonalLoop=1;jettySize=auto;html=1;" parent="1" source="8jwhhJ4_cBbjTl03nuOA-39" target="8jwhhJ4_cBbjTl03nuOA-56" edge="1">
          <mxGeometry relative="1" as="geometry" />
        </mxCell>
        <mxCell id="8jwhhJ4_cBbjTl03nuOA-39" value="ML (Model to be explained)" style="sketch=0;outlineConnect=0;fontColor=#232F3E;gradientColor=none;fillColor=#56C0A7;strokeColor=none;dashed=0;verticalLabelPosition=bottom;verticalAlign=top;align=center;html=1;fontSize=12;fontStyle=0;aspect=fixed;pointerEvents=1;shape=mxgraph.aws4.sagemaker_model;" parent="1" vertex="1">
          <mxGeometry x="470" y="530" width="78" height="78" as="geometry" />
        </mxCell>
        <mxCell id="8jwhhJ4_cBbjTl03nuOA-75" style="edgeStyle=orthogonalEdgeStyle;rounded=0;orthogonalLoop=1;jettySize=auto;html=1;entryX=0.5;entryY=0;entryDx=0;entryDy=0;entryPerimeter=0;" parent="1" source="8jwhhJ4_cBbjTl03nuOA-41" target="8jwhhJ4_cBbjTl03nuOA-74" edge="1">
          <mxGeometry relative="1" as="geometry" />
        </mxCell>
        <mxCell id="8jwhhJ4_cBbjTl03nuOA-41" value="&lt;div&gt;Surrogate Model&lt;/div&gt;" style="sketch=0;outlineConnect=0;fontColor=#232F3E;gradientColor=none;fillColor=#56C0A7;strokeColor=none;dashed=0;verticalLabelPosition=bottom;verticalAlign=top;align=center;html=1;fontSize=12;fontStyle=0;aspect=fixed;pointerEvents=1;shape=mxgraph.aws4.sagemaker_model;" parent="1" vertex="1">
          <mxGeometry x="102" y="390" width="78" height="78" as="geometry" />
        </mxCell>
        <mxCell id="8jwhhJ4_cBbjTl03nuOA-64" style="edgeStyle=orthogonalEdgeStyle;rounded=0;orthogonalLoop=1;jettySize=auto;html=1;" parent="1" source="8jwhhJ4_cBbjTl03nuOA-56" target="8jwhhJ4_cBbjTl03nuOA-60" edge="1">
          <mxGeometry relative="1" as="geometry" />
        </mxCell>
        <mxCell id="1L5oEn02ENVLadmju7SX-37" style="edgeStyle=orthogonalEdgeStyle;rounded=0;orthogonalLoop=1;jettySize=auto;html=1;entryX=1;entryY=0.5;entryDx=0;entryDy=0;" edge="1" parent="1" source="8jwhhJ4_cBbjTl03nuOA-56" target="1L5oEn02ENVLadmju7SX-21">
          <mxGeometry relative="1" as="geometry" />
        </mxCell>
        <mxCell id="1L5oEn02ENVLadmju7SX-43" value="update" style="edgeLabel;html=1;align=center;verticalAlign=middle;resizable=0;points=[];" vertex="1" connectable="0" parent="1L5oEn02ENVLadmju7SX-37">
          <mxGeometry x="0.2225" y="-2" relative="1" as="geometry">
            <mxPoint as="offset" />
          </mxGeometry>
        </mxCell>
        <mxCell id="8jwhhJ4_cBbjTl03nuOA-56" value="&lt;div&gt;Objective function&lt;/div&gt;&lt;div&gt;(scores)&lt;/div&gt;" style="html=1;whiteSpace=wrap;aspect=fixed;shape=isoRectangle;shadow=0;strokeColor=#56C0A7;fillColor=none;" parent="1" vertex="1">
          <mxGeometry x="437.15999999999997" y="385.9" width="143.67" height="86.2" as="geometry" />
        </mxCell>
        <mxCell id="1L5oEn02ENVLadmju7SX-7" style="edgeStyle=orthogonalEdgeStyle;rounded=0;orthogonalLoop=1;jettySize=auto;html=1;entryX=1.016;entryY=0.411;entryDx=0;entryDy=0;entryPerimeter=0;" edge="1" parent="1" source="8jwhhJ4_cBbjTl03nuOA-60" target="8jwhhJ4_cBbjTl03nuOA-65">
          <mxGeometry relative="1" as="geometry" />
        </mxCell>
        <mxCell id="8jwhhJ4_cBbjTl03nuOA-60" value="Close to current best score" style="html=1;whiteSpace=wrap;aspect=fixed;shape=isoRectangle;shadow=0;strokeColor=#56C0A7;fillColor=none;" parent="1" vertex="1">
          <mxGeometry x="433.5" y="100.00000000000001" width="151" height="90.6" as="geometry" />
        </mxCell>
        <mxCell id="1L5oEn02ENVLadmju7SX-8" style="edgeStyle=orthogonalEdgeStyle;rounded=0;orthogonalLoop=1;jettySize=auto;html=1;" edge="1" parent="1" source="8jwhhJ4_cBbjTl03nuOA-65" target="8jwhhJ4_cBbjTl03nuOA-27">
          <mxGeometry relative="1" as="geometry" />
        </mxCell>
        <mxCell id="8jwhhJ4_cBbjTl03nuOA-65" value="Closest&lt;br&gt;Counterfactuals" style="strokeWidth=2;html=1;shape=mxgraph.flowchart.multi-document;whiteSpace=wrap;fillColor=none;strokeColor=#56C0A7;" parent="1" vertex="1">
          <mxGeometry x="35" y="111.6" width="111" height="79" as="geometry" />
        </mxCell>
        <mxCell id="8jwhhJ4_cBbjTl03nuOA-66" value="No" style="text;html=1;align=center;verticalAlign=middle;resizable=0;points=[];autosize=1;strokeColor=none;fillColor=none;" parent="1" vertex="1">
          <mxGeometry x="584.5" y="150" width="30" height="20" as="geometry" />
        </mxCell>
        <mxCell id="8jwhhJ4_cBbjTl03nuOA-70" value="&lt;div&gt;Predictions&lt;br&gt;(mean, std)&lt;br&gt;&lt;/div&gt;" style="text;html=1;align=center;verticalAlign=middle;resizable=0;points=[];autosize=1;strokeColor=none;fillColor=none;" parent="1" vertex="1">
          <mxGeometry x="140" y="490" width="80" height="30" as="geometry" />
        </mxCell>
        <mxCell id="8jwhhJ4_cBbjTl03nuOA-71" value="Yes" style="text;html=1;align=center;verticalAlign=middle;resizable=0;points=[];autosize=1;strokeColor=none;fillColor=none;" parent="1" vertex="1">
          <mxGeometry x="410" y="114.5" width="40" height="20" as="geometry" />
        </mxCell>
        <mxCell id="8jwhhJ4_cBbjTl03nuOA-76" style="edgeStyle=orthogonalEdgeStyle;rounded=0;orthogonalLoop=1;jettySize=auto;html=1;" parent="1" source="8jwhhJ4_cBbjTl03nuOA-74" target="8jwhhJ4_cBbjTl03nuOA-39" edge="1">
          <mxGeometry relative="1" as="geometry" />
        </mxCell>
        <mxCell id="1L5oEn02ENVLadmju7SX-46" value="Top N ranked instances" style="edgeLabel;html=1;align=center;verticalAlign=middle;resizable=0;points=[];" vertex="1" connectable="0" parent="8jwhhJ4_cBbjTl03nuOA-76">
          <mxGeometry x="-0.125" relative="1" as="geometry">
            <mxPoint as="offset" />
          </mxGeometry>
        </mxCell>
        <mxCell id="8jwhhJ4_cBbjTl03nuOA-74" value="Acquisition function&lt;br&gt;(Expected improvement score f/e instance)" style="sketch=0;points=[[0,0,0],[0.25,0,0],[0.5,0,0],[0.75,0,0],[1,0,0],[0,1,0],[0.25,1,0],[0.5,1,0],[0.75,1,0],[1,1,0],[0,0.25,0],[0,0.5,0],[0,0.75,0],[1,0.25,0],[1,0.5,0],[1,0.75,0]];outlineConnect=0;fontColor=#232F3E;gradientColor=#4AB29A;gradientDirection=north;fillColor=none;strokeColor=#56C0A7;dashed=0;verticalLabelPosition=bottom;verticalAlign=top;align=center;html=1;fontSize=12;fontStyle=0;aspect=fixed;shape=mxgraph.aws4.resourceIcon;resIcon=mxgraph.aws4.panorama;shadow=0;" parent="1" vertex="1">
          <mxGeometry x="102" y="530" width="78" height="78" as="geometry" />
        </mxCell>
        <mxCell id="1L5oEn02ENVLadmju7SX-15" style="edgeStyle=orthogonalEdgeStyle;rounded=0;orthogonalLoop=1;jettySize=auto;html=1;exitX=0.5;exitY=1;exitDx=0;exitDy=0;exitPerimeter=0;" edge="1" parent="1" source="1L5oEn02ENVLadmju7SX-4" target="8jwhhJ4_cBbjTl03nuOA-41">
          <mxGeometry relative="1" as="geometry" />
        </mxCell>
        <mxCell id="1L5oEn02ENVLadmju7SX-4" value="Generate RANDOM" style="sketch=0;points=[[0,0,0],[0.25,0,0],[0.5,0,0],[0.75,0,0],[1,0,0],[0,1,0],[0.25,1,0],[0.5,1,0],[0.75,1,0],[1,1,0],[0,0.25,0],[0,0.5,0],[0,0.75,0],[1,0.25,0],[1,0.5,0],[1,0.75,0]];outlineConnect=0;fontColor=#232F3E;gradientColor=#4AB29A;gradientDirection=north;fillColor=none;strokeColor=#C00606;dashed=0;verticalLabelPosition=bottom;verticalAlign=top;align=center;html=1;fontSize=12;fontStyle=0;aspect=fixed;shape=mxgraph.aws4.resourceIcon;resIcon=mxgraph.aws4.personalize;shadow=1;" vertex="1" parent="1">
          <mxGeometry x="220" y="230" width="79" height="79" as="geometry" />
        </mxCell>
        <mxCell id="1L5oEn02ENVLadmju7SX-12" style="edgeStyle=orthogonalEdgeStyle;rounded=0;orthogonalLoop=1;jettySize=auto;html=1;exitX=1;exitY=0.5;exitDx=0;exitDy=0;exitPerimeter=0;" edge="1" parent="1" source="1L5oEn02ENVLadmju7SX-10" target="8jwhhJ4_cBbjTl03nuOA-41">
          <mxGeometry relative="1" as="geometry" />
        </mxCell>
        <mxCell id="1L5oEn02ENVLadmju7SX-10" value="Generate initial neighbours" style="sketch=0;points=[[0,0,0],[0.25,0,0],[0.5,0,0],[0.75,0,0],[1,0,0],[0,1,0],[0.25,1,0],[0.5,1,0],[0.75,1,0],[1,1,0],[0,0.25,0],[0,0.5,0],[0,0.75,0],[1,0.25,0],[1,0.5,0],[1,0.75,0]];outlineConnect=0;fontColor=#232F3E;gradientColor=#4AB29A;gradientDirection=north;fillColor=none;strokeColor=#56C0A7;dashed=0;verticalLabelPosition=bottom;verticalAlign=top;align=center;html=1;fontSize=12;fontStyle=0;aspect=fixed;shape=mxgraph.aws4.resourceIcon;resIcon=mxgraph.aws4.personalize;shadow=0;" vertex="1" parent="1">
          <mxGeometry x="-84.5" y="390" width="79" height="79" as="geometry" />
        </mxCell>
        <mxCell id="1L5oEn02ENVLadmju7SX-11" style="edgeStyle=orthogonalEdgeStyle;rounded=0;orthogonalLoop=1;jettySize=auto;html=1;" edge="1" parent="1" source="8jwhhJ4_cBbjTl03nuOA-3" target="1L5oEn02ENVLadmju7SX-10">
          <mxGeometry relative="1" as="geometry" />
        </mxCell>
        <mxCell id="1L5oEn02ENVLadmju7SX-38" style="edgeStyle=orthogonalEdgeStyle;rounded=0;orthogonalLoop=1;jettySize=auto;html=1;" edge="1" parent="1" source="1L5oEn02ENVLadmju7SX-21" target="8jwhhJ4_cBbjTl03nuOA-41">
          <mxGeometry relative="1" as="geometry">
            <mxPoint x="281.8000000000002" y="429" as="targetPoint" />
          </mxGeometry>
        </mxCell>
        <mxCell id="1L5oEn02ENVLadmju7SX-42" value="retrain model" style="edgeLabel;html=1;align=center;verticalAlign=middle;resizable=0;points=[];" vertex="1" connectable="0" parent="1L5oEn02ENVLadmju7SX-38">
          <mxGeometry x="0.0044" y="-1" relative="1" as="geometry">
            <mxPoint as="offset" />
          </mxGeometry>
        </mxCell>
        <mxCell id="1L5oEn02ENVLadmju7SX-21" value="known instances" style="shape=datastore;whiteSpace=wrap;html=1;shadow=1;strokeColor=#56C0A7;fillColor=none;" vertex="1" parent="1">
          <mxGeometry x="295.5" y="385.9" width="65" height="82.25" as="geometry" />
        </mxCell>
        <mxCell id="1L5oEn02ENVLadmju7SX-23" value="2" style="text;html=1;align=center;verticalAlign=middle;resizable=0;points=[];autosize=1;strokeColor=none;fillColor=none;fontStyle=1" vertex="1" parent="1">
          <mxGeometry x="-90" y="390" width="20" height="20" as="geometry" />
        </mxCell>
        <mxCell id="1L5oEn02ENVLadmju7SX-24" value="1" style="text;html=1;align=center;verticalAlign=middle;resizable=0;points=[];autosize=1;strokeColor=none;fillColor=none;fontStyle=1" vertex="1" parent="1">
          <mxGeometry x="-130" y="109" width="20" height="20" as="geometry" />
        </mxCell>
        <mxCell id="1L5oEn02ENVLadmju7SX-25" value="3" style="text;html=1;align=center;verticalAlign=middle;resizable=0;points=[];autosize=1;strokeColor=none;fillColor=none;fontStyle=1" vertex="1" parent="1">
          <mxGeometry x="90" y="385.9" width="20" height="20" as="geometry" />
        </mxCell>
        <mxCell id="1L5oEn02ENVLadmju7SX-26" value="4" style="text;html=1;align=center;verticalAlign=middle;resizable=0;points=[];autosize=1;strokeColor=none;fillColor=none;fontStyle=1" vertex="1" parent="1">
          <mxGeometry x="102" y="530" width="20" height="20" as="geometry" />
        </mxCell>
        <mxCell id="1L5oEn02ENVLadmju7SX-27" value="&lt;div&gt;5&lt;/div&gt;" style="text;html=1;align=center;verticalAlign=middle;resizable=0;points=[];autosize=1;strokeColor=none;fillColor=none;fontStyle=1" vertex="1" parent="1">
          <mxGeometry x="460" y="520" width="20" height="20" as="geometry" />
        </mxCell>
        <mxCell id="1L5oEn02ENVLadmju7SX-28" value="6" style="text;html=1;align=center;verticalAlign=middle;resizable=0;points=[];autosize=1;strokeColor=none;fillColor=none;fontStyle=1" vertex="1" parent="1">
          <mxGeometry x="450" y="385.9" width="20" height="20" as="geometry" />
        </mxCell>
        <mxCell id="1L5oEn02ENVLadmju7SX-29" value="7" style="text;html=1;align=center;verticalAlign=middle;resizable=0;points=[];autosize=1;strokeColor=none;fillColor=none;fontStyle=1" vertex="1" parent="1">
          <mxGeometry x="279" y="385.9" width="20" height="20" as="geometry" />
        </mxCell>
        <mxCell id="1L5oEn02ENVLadmju7SX-31" value="9" style="text;html=1;align=center;verticalAlign=middle;resizable=0;points=[];autosize=1;strokeColor=none;fillColor=none;fontStyle=1" vertex="1" parent="1">
          <mxGeometry x="450" y="109" width="20" height="20" as="geometry" />
        </mxCell>
        <mxCell id="1L5oEn02ENVLadmju7SX-32" value="10" style="text;html=1;align=center;verticalAlign=middle;resizable=0;points=[];autosize=1;strokeColor=none;fillColor=none;fontStyle=1" vertex="1" parent="1">
          <mxGeometry x="146" y="109" width="30" height="20" as="geometry" />
        </mxCell>
        <mxCell id="1L5oEn02ENVLadmju7SX-33" value="11" style="text;html=1;align=center;verticalAlign=middle;resizable=0;points=[];autosize=1;strokeColor=none;fillColor=none;fontStyle=1" vertex="1" parent="1">
          <mxGeometry x="35" y="240" width="30" height="20" as="geometry" />
        </mxCell>
        <mxCell id="1L5oEn02ENVLadmju7SX-34" value="12" style="text;html=1;align=center;verticalAlign=middle;resizable=0;points=[];autosize=1;strokeColor=none;fillColor=none;fontStyle=1" vertex="1" parent="1">
          <mxGeometry x="209" y="240" width="30" height="20" as="geometry" />
        </mxCell>
      </root>
    </mxGraphModel>
  </diagram>
</mxfile>
